<svg width="24" height="24" viewBox="0 0 24 24" fill="none" xmlns="http://www.w3.org/2000/svg">
    <path fill-rule="evenodd" clip-rule="evenodd" d="M3.4001 12C3.4001 7.25033 7.25045 3.39998 12.0001 3.39998C16.7497 3.39998 20.6001 7.25033 20.6001 12C20.6001 16.7496 16.7497 20.6 12.0001 20.6C7.25045 20.6 3.4001 16.7496 3.4001 12ZM12.0001 1.59998C6.25634 1.59998 1.6001 6.25621 1.6001 12C1.6001 17.7437 6.25634 22.4 12.0001 22.4C17.7439 22.4 22.4001 17.7437 22.4001 12C22.4001 6.25621 17.7439 1.59998 12.0001 1.59998ZM17.1363 7.13667C17.2373 6.95983 17.0402 6.76274 16.8634 6.8638L11.4473 9.95872C10.8272 10.3131 10.3132 10.827 9.95886 11.4471L6.86394 16.8633C6.76289 17.0401 6.95997 17.2372 7.13682 17.1361L12.5529 14.0412C13.1731 13.6869 13.687 13.1729 14.0414 12.5528L17.1363 7.13667Z" fill="#6C57AA"/>
</svg>
