<svg width="28" height="24" viewBox="0 0 28 24" fill="none" xmlns="http://www.w3.org/2000/svg">
    <path fill-rule="evenodd" clip-rule="evenodd" d="M4.99998 1.09998C5.49703 1.09998 5.89998 1.50292 5.89998 1.99998V2.99997C5.89998 3.55225 6.34769 3.99997 6.89998 3.99997H11C11.5523 3.99997 12 4.44768 12 4.99997V5.99997C12 6.55225 12.4477 6.99997 13 6.99997H22.2967C23.2251 6.99997 23.6524 8.15503 22.9475 8.75923L18.8858 12.2407C18.4202 12.6398 18.4202 13.3601 18.8858 13.7592L22.9475 17.2407C23.6524 17.8449 23.2251 19 22.2967 19H13C12.4477 19 12 18.5523 12 18V17C12 16.4477 11.5523 16 11 16H6.89998C6.34769 16 5.89998 16.4477 5.89998 17V22C5.89998 22.497 5.49703 22.9 4.99998 22.9C4.50292 22.9 4.09998 22.497 4.09998 22V1.99998C4.09998 1.50292 4.50292 1.09998 4.99998 1.09998Z" fill="#CA0000"/>
</svg>
