<svg width="24" height="24" viewBox="0 0 24 24" fill="none" xmlns="http://www.w3.org/2000/svg">

    <path fill-rule="evenodd" clip-rule="evenodd" d="M9.97008 1.65405C8.09231 1.65405 6.57008 3.17629 6.57008 5.05405C6.57008 5.60098 6.12671 6.04435 5.57978 6.04435H3.75094C2.74229 6.04435 1.89149 6.79542 1.76639 7.79628L1.2033 12.301C1.07984 13.2886 1.70139 14.2167 2.66162 14.4786L4.64453 15.0194C4.64454 15.0194 4.64454 15.0194 4.64452 15.0194C4.64451 15.0194 4.64451 15.0194 4.64452 15.0194L10.905 16.7268C11.0921 16.7779 11.282 16.815 11.4731 16.8383C11.9861 16.9009 12.5081 16.8638 13.0102 16.7269L21.2538 14.4786C22.214 14.2167 22.8355 13.2886 22.7121 12.301L22.149 7.79628C22.0239 6.79542 21.1731 6.04435 20.1644 6.04435H18.3355C17.7885 6.04435 17.3452 5.60098 17.3452 5.05405C17.3452 3.17628 15.8229 1.65405 13.9452 1.65405H9.97008ZM14.5549 6.04435C15.1018 6.04435 15.5452 5.60098 15.5452 5.05405C15.5452 4.1704 14.8288 3.45405 13.9452 3.45405H9.97008C9.08642 3.45405 8.37008 4.1704 8.37008 5.05405C8.37008 5.60098 8.81345 6.04435 9.36037 6.04435H14.5549ZM3.00994 16.1284C2.58949 16.0138 2.11626 16.1824 2.02729 16.609C1.99967 16.7415 1.98515 16.8788 1.98515 17.0194V20C1.98515 21.1046 2.88058 22 3.98515 22H19.9298C21.0344 22 21.9298 21.1046 21.9298 20V17.0194C21.9298 16.8787 21.9153 16.7415 21.8876 16.609C21.7987 16.1824 21.3254 16.0137 20.905 16.1284L13.4046 18.174C12.4571 18.4324 11.4577 18.4324 10.5103 18.174L3.00994 16.1284Z" fill="#44525F"/>

</svg>
