<svg width="24" height="24" viewBox="0 0 24 24" fill="none" xmlns="http://www.w3.org/2000/svg">
    <path fill-rule="evenodd" clip-rule="evenodd" d="M3.99998 2.1001C3.50292 2.1001 3.09998 2.50304 3.09998 3.0001C3.09998 3.49715 3.50292 3.9001 3.99998 3.9001H4.63504C4.85655 6.72003 6.09141 8.86567 7.30858 10.3263C7.90628 11.0435 8.50369 11.601 8.9844 12.0001C8.50369 12.3992 7.90628 12.9567 7.30858 13.6739C6.09141 15.1345 4.85655 17.2802 4.63504 20.1001H3.99998C3.50292 20.1001 3.09998 20.503 3.09998 21.0001C3.09998 21.4972 3.50292 21.9001 3.99998 21.9001H5.49998H18.5H20C20.497 21.9001 20.9 21.4972 20.9 21.0001C20.9 20.503 20.497 20.1001 20 20.1001H19.3649C19.1434 17.2802 17.9085 15.1345 16.6914 13.6739C16.0937 12.9567 15.4963 12.3992 15.0155 12.0001C15.4963 11.601 16.0937 11.0435 16.6914 10.3263C17.9085 8.86567 19.1434 6.72003 19.3649 3.9001H20C20.497 3.9001 20.9 3.49715 20.9 3.0001C20.9 2.50304 20.497 2.1001 20 2.1001H18.5H5.49998H3.99998ZM7.29365 7.0001C6.87079 6.10612 6.55193 5.07324 6.4418 3.9001H17.5581C17.448 5.07324 17.1292 6.10612 16.7063 7.0001H7.29365ZM10.6283 13.0001C10.5296 13.0718 10.4123 13.1603 10.281 13.2654C9.8491 13.6109 9.27006 14.1318 8.69137 14.8263C7.66551 16.0573 6.65661 17.8119 6.4418 20.1001H17.5581C17.3433 17.8119 16.3344 16.0573 15.3086 14.8263C14.7299 14.1318 14.1509 13.6109 13.719 13.2654C13.5876 13.1603 13.4704 13.0718 13.3716 13.0001H10.6283Z" fill="#CA0000"/>
</svg>
