<svg width="24" height="24" viewBox="0 0 24 24" fill="none" xmlns="http://www.w3.org/2000/svg">
    <path fill-rule="evenodd" clip-rule="evenodd" d="M12 22C17.5228 22 22 17.5228 22 12C22 6.47715 17.5228 2 12 2C6.47715 2 2 6.47715 2 12C2 17.5228 6.47715 22 12 22ZM12.9 6.5C12.9 6.00294 12.4971 5.6 12 5.6C11.5029 5.6 11.1 6.00294 11.1 6.5V12C11.1 12.2387 11.1948 12.4676 11.3636 12.6364L14.3636 15.6364C14.7151 15.9879 15.2849 15.9879 15.6364 15.6364C15.9879 15.2849 15.9879 14.7151 15.6364 14.3636L12.9 11.6272V6.5Z" fill="#6C57AA"/>
</svg>
